<svg width="1134" height="340" xmlns="http://www.w3.org/2000/svg" xmlns:xlink="http://www.w3.org/1999/xlink" overflow="hidden"><g><rect x="0" y="0" width="1134" height="339.783" fill="#FFFFFF"/><rect x="320.5" y="11.4926" width="723" height="317.798" stroke="#000000" stroke-width="1.00015" stroke-linejoin="round" stroke-miterlimit="10" fill="#F2F2F2" fill-opacity="0.501961"/><text font-family="Cambria Math,Cambria Math_MSFontService,sans-serif" font-weight="400" font-size="16" transform="matrix(1 0 0 0.999363 631.92 162)">Sound pressure</text><text font-family="Cambria Math,Cambria Math_MSFontService,sans-serif" font-weight="400" font-size="16" transform="matrix(1 0 0 0.999363 665.024 181)">signal</text><text font-family="Cambria Math,Cambria Math_MSFontService,sans-serif" font-weight="400" font-size="21" transform="matrix(1 0 0 0.999363 809.886 39)">Auralization</text><text font-family="Cambria Math,Cambria Math_MSFontService,sans-serif" font-weight="400" font-size="21" transform="matrix(1 0 0 0.999363 927.07 39)">framework</text><text font-family="Cambria Math,Cambria Math_MSFontService,sans-serif" font-weight="400" font-size="16" transform="matrix(1 0 0 0.999363 330.046 162)">Flight trajectory &amp;</text><text font-family="Cambria Math,Cambria Math_MSFontService,sans-serif" font-weight="400" font-size="16" transform="matrix(1 0 0 0.999363 334.807 181)">receiver position</text><text font-family="Cambria Math,Cambria Math_MSFontService,sans-serif" font-weight="400" font-size="16" transform="matrix(1 0 0 0.999363 590.403 81)">SPLs</text><text font-family="Cambria Math,Cambria Math_MSFontService,sans-serif" font-weight="400" font-size="16" transform="matrix(1 0 0 0.999363 561.108 228)">Atmospheric</text><text font-family="Cambria Math,Cambria Math_MSFontService,sans-serif" font-weight="400" font-size="16" transform="matrix(1 0 0 0.999363 547.306 247)">transfer function</text><text font-family="Cambria Math,Cambria Math_MSFontService,sans-serif" font-weight="400" font-size="13" transform="matrix(1 0 0 0.999363 1056.51 159)">WAV file</text><path d="M468 121.423 468 220.667 467 220.667 467 121.423ZM467.5 220.667 474.168 215.337 467.5 228.663 460.832 215.337Z"/><path d="M747 121.423 747 220.667 746 220.667 746 121.423ZM746.5 220.667 753.168 215.337 746.5 228.663 739.832 215.337Z"/><path d="M537.5 258.835 669.303 258.835 669.303 259.835 537.5 259.834ZM669.303 259.335 663.969 252.671 677.304 259.335 663.969 265.998Z"/><path d="M1017.5 169.892 1124.91 169.892 1124.91 170.891 1017.5 170.891ZM1124.91 170.392 1119.57 163.728 1132.91 170.392 1119.57 177.055Z"/><path d="M157.5 89.9426 390.082 89.9427 390.082 90.9422 157.5 90.9421ZM390.082 90.4425 384.748 83.7791 398.083 90.4425 384.748 97.1059Z"/><text font-family="Cambria Math,Cambria Math_MSFontService,sans-serif" font-weight="400" font-size="16" transform="matrix(1 0 0 0.999363 182.422 43)">Flight trajectory,</text><text font-family="Cambria Math,Cambria Math_MSFontService,sans-serif" font-weight="400" font-size="16" transform="matrix(1 0 0 0.999363 181.582 62)">sound emissions</text><text font-family="Cambria Math,Cambria Math_MSFontService,sans-serif" font-weight="400" font-size="16" transform="matrix(1 0 0 0.999363 172.848 81)">with Doppler</text><text font-family="Cambria Math,Cambria Math_MSFontService,sans-serif" font-weight="400" font-size="16" transform="matrix(1 0 0 0.999363 266.528 81)">effect</text><rect x="397.5" y="59.4621" width="140" height="61.9605" stroke="#000000" stroke-width="1.00015" stroke-linejoin="round" stroke-miterlimit="10" fill="#FFFFFF"/><text font-family="Cambria Math,Cambria Math_MSFontService,sans-serif" font-weight="400" font-size="16" transform="matrix(1 0 0 0.999363 411.74 86)">Data</text><text font-family="Cambria Math,Cambria Math_MSFontService,sans-serif" font-weight="400" font-size="16" transform="matrix(1 0 0 0.999363 446.912 86)">conversion</text><text font-family="Cambria Math,Cambria Math_MSFontService,sans-serif" font-weight="400" font-size="16" transform="matrix(1 0 0 0.999363 407.193 105)">PANAM/MATLAB</text><rect x="677.5" y="59.4621" width="139" height="61.9605" stroke="#000000" stroke-width="1.00015" stroke-linejoin="round" stroke-miterlimit="10" fill="#FFFFFF"/><text font-family="Cambria Math,Cambria Math_MSFontService,sans-serif" font-weight="400" font-size="16" transform="matrix(1 0 0 0.999363 692.85 96)">Sound</text><text font-family="Cambria Math,Cambria Math_MSFontService,sans-serif" font-weight="400" font-size="16" transform="matrix(1 0 0 0.999363 739.524 96)">synthesis</text><path d="M537.5 89.9426 669.303 89.9427 669.303 90.9422 537.5 90.9421ZM669.303 90.4425 663.969 83.7791 677.304 90.4425 663.969 97.1059Z"/><rect x="397.5" y="228.355" width="140" height="61.9605" stroke="#000000" stroke-width="1.00015" stroke-linejoin="round" stroke-miterlimit="10" fill="#FFFFFF"/><text font-family="Cambria Math,Cambria Math_MSFontService,sans-serif" font-weight="400" font-size="16" transform="matrix(1 0 0 0.999363 408.763 255)">Atmospheric</text><text font-family="Cambria Math,Cambria Math_MSFontService,sans-serif" font-weight="400" font-size="16" transform="matrix(1 0 0 0.999363 499.71 255)">Ray</text><text font-family="Cambria Math,Cambria Math_MSFontService,sans-serif" font-weight="400" font-size="16" transform="matrix(1 0 0 0.999363 409.603 274)">Tracing</text><text font-family="Cambria Math,Cambria Math_MSFontService,sans-serif" font-weight="400" font-size="16" transform="matrix(1 0 0 0.999363 464.625 274)">software</text><rect x="677.5" y="228.355" width="139" height="61.9605" stroke="#000000" stroke-width="1.00015" stroke-linejoin="round" stroke-miterlimit="10" fill="#FFFFFF"/><rect x="17.5" y="59.4621" width="140" height="61.9605" stroke="#000000" stroke-width="1.00015" stroke-linejoin="round" stroke-miterlimit="10" fill="#FFFFFF"/><text font-family="Cambria Math,Cambria Math_MSFontService,sans-serif" font-weight="400" font-size="16" transform="matrix(1 0 0 0.999363 40.4569 77)">Aircraft</text><text font-family="Cambria Math,Cambria Math_MSFontService,sans-serif" font-weight="400" font-size="16" transform="matrix(1 0 0 0.999363 96.2917 77)">noise</text><text font-family="Cambria Math,Cambria Math_MSFontService,sans-serif" font-weight="400" font-size="16" transform="matrix(1 0 0 0.999363 45.571 96)">prediction</text><text font-family="Cambria Math,Cambria Math_MSFontService,sans-serif" font-weight="400" font-size="16" transform="matrix(1 0 0 0.999363 119.849 96)">–</text><text font-family="Cambria Math,Cambria Math_MSFontService,sans-serif" font-weight="400" font-size="16" transform="matrix(1 0 0 0.999363 42.3305 115)">PANAM</text><text font-family="Cambria Math,Cambria Math_MSFontService,sans-serif" font-weight="400" font-size="16" transform="matrix(1 0 0 0.999363 93.9114 115)">/DLR</text><rect x="877.5" y="139.411" width="140" height="61.9605" stroke="#000000" stroke-width="1.00015" stroke-linejoin="round" stroke-miterlimit="10" fill="#FFFFFF"/><text font-family="Cambria Math,Cambria Math_MSFontService,sans-serif" font-weight="400" font-size="16" transform="matrix(1 0 0 0.999363 893.862 167)">Sound</text><text font-family="Cambria Math,Cambria Math_MSFontService,sans-serif" font-weight="400" font-size="16" transform="matrix(1 0 0 0.999363 940.536 167)">pressure</text><text font-family="Cambria Math,Cambria Math_MSFontService,sans-serif" font-weight="400" font-size="16" transform="matrix(1 0 0 0.999363 889.141 186)">signal</text><text font-family="Cambria Math,Cambria Math_MSFontService,sans-serif" font-weight="400" font-size="16" transform="matrix(1 0 0 0.999363 932.981 186)">at</text><text font-family="Cambria Math,Cambria Math_MSFontService,sans-serif" font-weight="400" font-size="16" transform="matrix(1 0 0 0.999363 949.65 186)">receiver</text><path d="M0-0.499755 30.5357-0.499755C30.8117-0.499755 31.0355-0.276007 31.0355 0L31.0355 88.8017 30.5357 88.302 53.0753 88.302 53.0753 89.3015 30.5357 89.3015C30.2597 89.3015 30.036 89.0777 30.036 88.8017L30.036 0 30.5357 0.499755 0 0.499755ZM53.0753 88.8017 47.7446 82.1383 61.0714 88.8017 47.7446 95.4651Z" transform="matrix(1.00064 0 0 -1 816.5 259.193)"/><text font-family="Cambria Math,Cambria Math_MSFontService,sans-serif" font-weight="400" font-size="16" transform="matrix(1 0 0 0.999363 709.638 256)">DFT</text><text font-family="Cambria Math,Cambria Math_MSFontService,sans-serif" font-weight="400" font-size="16" transform="matrix(1 0 0 0.999363 738.476 256)">-</text><text font-family="Cambria Math,Cambria Math_MSFontService,sans-serif" font-weight="400" font-size="16" transform="matrix(1 0 0 0.999363 743.81 256)">based</text><text font-family="Cambria Math,Cambria Math_MSFontService,sans-serif" font-weight="400" font-size="16" transform="matrix(1 0 0 0.999363 686.115 275)">block</text><text font-family="Cambria Math,Cambria Math_MSFontService,sans-serif" font-weight="400" font-size="16" transform="matrix(1 0 0 0.999363 726.621 275)">convolution</text><text font-family="Cambria Math,Cambria Math_MSFontService,sans-serif" font-weight="400" font-size="16" transform="matrix(1 0 0 0.999363 40.6535 149)">Sound source</text><text font-family="Cambria Math,Cambria Math_MSFontService,sans-serif" font-weight="400" font-size="16" transform="matrix(1 0 0 0.999363 47.7879 168)">description</text><text font-family="Cambria Math,Cambria Math_MSFontService,sans-serif" font-weight="400" font-size="16" transform="matrix(1 0 0 0.999363 365.937 316)">Sound propagation modelling</text></g></svg>